<svg xmlns="http://www.w3.org/2000/svg" width="38" height="38" viewBox="0 0 38 38">
  <g id="Icon" transform="translate(-235 -994)">
    <g id="Icon.BG" transform="translate(235 994)" fill="#fff" stroke="#a3a1fb" stroke-width="1">
      <circle cx="19" cy="19" r="19" stroke="none"/>
      <circle cx="19" cy="19" r="18.5" fill="none"/>
    </g>
    <path id="cart-icon" d="M-615.986-1023a2,2,0,0,1,2-2,2,2,0,0,1,2,2,2,2,0,0,1-2,2A2,2,0,0,1-615.986-1023Zm-10,0a2,2,0,0,1,2-2,2,2,0,0,1,2,2,2,2,0,0,1-2,2A2,2,0,0,1-625.986-1023Zm-1.014-3v-2h12.261l1.427-5h-11.674v-2h-2v-2h3a1,1,0,0,1,1,1v1h11a1.021,1.021,0,0,1,.961,1.275l-2,7a1,1,0,0,1-.962.725Zm1-3v-1h4v1Zm1-2v-1h4v1Z" transform="translate(873 2042)" fill="#a4a1fb"/>
  </g>
</svg>
